<?xml version="1.0" encoding="UTF-8"?>
<!DOCTYPE svg PUBLIC "-//W3C//DTD SVG 1.1//EN" "http://www.w3.org/Graphics/SVG/1.1/DTD/svg11.dtd">
<!-- Creator: CorelDRAW -->
<svg xmlns="http://www.w3.org/2000/svg" xml:space="preserve" width="6.8434mm" height="8.6331mm" version="1.1" style="shape-rendering:geometricPrecision; text-rendering:geometricPrecision; image-rendering:optimizeQuality; fill-rule:evenodd; clip-rule:evenodd"
viewBox="0 0 3.46 4.37"
 xmlns:xlink="http://www.w3.org/1999/xlink"
 xmlns:xodm="http://www.corel.com/coreldraw/odm/2003">
 <defs>
  <style type="text/css">
   <![CDATA[
    .fil0 {fill:#01B1B1}
   ]]>
  </style>
 </defs>
 <g id="Camada_x0020_1">
  <metadata id="CorelCorpID_0Corel-Layer"/>
  <g id="_1864929221072">
   <path class="fil0" d="M1.55 3.35c-0,0.03 -0.21,0.52 -0.24,0.59l-0.08 0.2c-0.02,-0.02 -0.02,-0.01 -0.03,-0.04 -0.03,-0.06 -0.14,-0.36 -0.18,-0.38 -0.04,-0.03 -0.15,0.03 -0.23,0.05l-0.24 0.08 0.34 -0.82c0.1,0 0.11,0.02 0.16,0.14 0.06,0.13 0.11,0.35 0.3,0.3 0.07,-0.02 0.13,-0.08 0.19,-0.11zm0.35 -0.01c0.08,0.05 0.14,0.13 0.26,0.13 0.15,0 0.21,-0.22 0.26,-0.35 0.02,-0.06 0.05,-0.09 0.13,-0.09 0.03,0 0.02,0.01 0.03,0.04l0.15 0.36c0.03,0.08 0.16,0.36 0.17,0.42l-0.21 -0.07c-0.29,-0.12 -0.26,-0.1 -0.36,0.14 -0.02,0.04 -0.08,0.21 -0.11,0.23l-0.32 -0.77c-0,-0.01 -0.01,-0.03 -0.01,-0.03zm-0.35 0.01zm1.55 -1.62l-1.55 1.62zm1.55 -1.62c0,0.12 0.1,0.22 0.16,0.31 0.17,0.22 -0.04,0.18 -0.24,0.3 -0.28,0.16 -0.03,0.46 -0.11,0.57 -0.05,0.07 -0.3,-0.04 -0.46,0 -0.17,0.05 -0.2,0.36 -0.27,0.42 -0.09,0.06 -0.26,-0.22 -0.46,-0.22 -0.18,0 -0.37,0.33 -0.46,0.19 -0.05,-0.07 -0.08,-0.18 -0.11,-0.25 -0.15,-0.31 -0.47,-0.05 -0.58,-0.13 -0.08,-0.06 0.1,-0.4 -0.06,-0.54 -0.1,-0.09 -0.31,-0.11 -0.38,-0.21 0.03,-0.14 0.23,-0.26 0.23,-0.43 0,-0.11 -0.16,-0.27 -0.2,-0.35 -0.03,-0.05 -0.04,-0.08 0.01,-0.12 0.07,-0.05 0.18,-0.08 0.25,-0.11 0.04,-0.02 0.08,-0.04 0.1,-0.08 0.14,-0.19 -0.1,-0.53 0.08,-0.53 0.23,0 0.43,0.13 0.55,-0.15 0.02,-0.05 0.09,-0.26 0.15,-0.26 0.1,0 0.26,0.22 0.42,0.23 0.15,0.01 0.33,-0.23 0.43,-0.23 0.05,0 0.12,0.19 0.14,0.25 0.14,0.33 0.36,0.15 0.55,0.17 0.2,0.02 -0.1,0.41 0.14,0.57 0.15,0.1 0.39,0.12 0.34,0.23 -0.06,0.12 -0.22,0.25 -0.22,0.38zm-2.18 -1.28c-0.22,0 -0.5,-0.14 -0.5,0.21 0,0.08 0.02,0.17 0.03,0.25 0.01,0.11 -0.05,0.12 -0.12,0.15 -0.22,0.1 -0.45,0.16 -0.23,0.45 0.21,0.28 0.18,0.21 -0.02,0.49 -0.1,0.14 -0.08,0.26 0.06,0.34 0.15,0.09 0.32,0.09 0.32,0.22 0,0.1 -0.03,0.17 -0.03,0.32 0,0.18 0.16,0.18 0.26,0.18 0.03,0 0.03,-0.01 0.06,-0.01 -0,0.03 -0.06,0.15 -0.07,0.19 -0.03,0.06 -0.05,0.12 -0.08,0.19 -0.02,0.06 -0.24,0.51 -0.22,0.56 0.03,0.08 0.16,0.01 0.28,-0.03 0.05,-0.02 0.27,-0.1 0.3,-0.1 0.01,0.04 0.04,0.1 0.05,0.13l0.15 0.35c0.03,0.06 0.1,0.06 0.12,-0l0.38 -0.9c0.01,-0.03 0.05,-0.11 0.05,-0.14 0.03,0.03 0.38,0.86 0.42,0.97 0.04,0.09 0.04,0.12 0.1,0.12 0.03,0 0.04,-0.01 0.06,-0.03l0.21 -0.49c0.05,0 0.14,0.05 0.2,0.06 0.07,0.02 0.13,0.05 0.2,0.07 0.06,0.02 0.14,0.07 0.18,0.01 0.02,-0.03 0.01,-0.06 -0.01,-0.1l-0.2 -0.47c-0.02,-0.05 -0.15,-0.35 -0.16,-0.38 0.07,0.01 0.19,0.03 0.27,-0.04 0.1,-0.09 0.04,-0.33 0.03,-0.43 -0.01,-0.11 0.05,-0.12 0.12,-0.15 0.08,-0.04 0.32,-0.1 0.32,-0.23 0,-0.12 -0.03,-0.15 -0.11,-0.25 -0.03,-0.04 -0.12,-0.14 -0.12,-0.19 -0.01,-0.1 0.23,-0.29 0.23,-0.4 0,-0.14 -0.05,-0.19 -0.2,-0.25 -0.12,-0.05 -0.24,-0.07 -0.24,-0.18 0,-0.1 0.03,-0.18 0.03,-0.32 0,-0.14 -0.11,-0.18 -0.23,-0.18 -0.24,0 -0.32,0.11 -0.41,-0.09 -0.08,-0.19 -0.11,-0.32 -0.28,-0.32 -0.15,0 -0.28,0.23 -0.41,0.23 -0.16,0 -0.43,-0.52 -0.64,0 -0.04,0.11 -0.06,0.21 -0.17,0.21z"/>
   <path class="fil0" d="M1.78 2.74c-0.19,0 -0.31,-0.01 -0.47,-0.09 -0.21,-0.1 -0.37,-0.26 -0.47,-0.47 -0.24,-0.48 -0.05,-1.08 0.46,-1.34 0.38,-0.19 0.86,-0.1 1.15,0.19 0.39,0.39 0.39,1.03 0,1.42 -0.14,0.14 -0.39,0.29 -0.66,0.29zm-1.18 -1c0,0.53 0.37,0.99 0.88,1.1 0.18,0.04 0.32,0.04 0.5,0 0.21,-0.05 0.4,-0.15 0.55,-0.3 0.33,-0.33 0.43,-0.83 0.24,-1.26 -0.09,-0.2 -0.21,-0.34 -0.38,-0.47 -0.05,-0.04 -0.11,-0.07 -0.18,-0.1 -0.23,-0.11 -0.48,-0.14 -0.74,-0.08 -0.09,0.02 -0.13,0.04 -0.21,0.07 -0.07,0.03 -0.12,0.06 -0.18,0.1 -0.06,0.04 -0.14,0.11 -0.19,0.17 -0.08,0.1 -0.13,0.14 -0.2,0.3 -0.06,0.13 -0.1,0.28 -0.1,0.47z"/>
   <path class="fil0" d="M1.96 1.81c0,0.08 0.03,0.22 0.05,0.29 -0.3,-0.16 -0.25,-0.15 -0.41,-0.07 -0.04,0.02 -0.09,0.06 -0.13,0.07 0,-0.08 0.07,-0.26 0.03,-0.32 -0.05,-0.06 -0.18,-0.14 -0.19,-0.2 0.06,0 0.27,-0.02 0.3,-0.06 0.01,-0.02 0.12,-0.22 0.12,-0.25l0.02 0c0.01,0.02 0.1,0.22 0.12,0.24 0.03,0.04 0.26,0.06 0.31,0.06 -0.03,0.04 -0.21,0.19 -0.21,0.23zm-0.87 -0.27c0,0.08 0.28,0.28 0.28,0.32 0,0.05 -0.02,0.12 -0.03,0.17 -0.01,0.06 -0.09,0.31 0.07,0.25l0.14 -0.07c0.05,-0.03 0.16,-0.1 0.2,-0.09 0.03,0.01 0.31,0.17 0.35,0.17 0.12,0 0,-0.29 0,-0.43 0,-0.04 0.28,-0.24 0.28,-0.32 0,-0.07 -0.21,-0.08 -0.32,-0.1 -0.13,-0.02 -0.08,0.04 -0.2,-0.22 -0.03,-0.05 -0.1,-0.27 -0.19,-0.1 -0.02,0.04 -0.03,0.06 -0.05,0.1l-0.09 0.19c-0.02,0.03 -0.01,0.02 -0.1,0.03 -0.1,0.01 -0.33,0.02 -0.33,0.1z"/>
  </g>
 </g>
</svg>
