<?xml version="1.0" encoding="UTF-8"?>
<!DOCTYPE svg PUBLIC "-//W3C//DTD SVG 1.1//EN" "http://www.w3.org/Graphics/SVG/1.1/DTD/svg11.dtd">
<!-- Creator: CorelDRAW -->
<svg xmlns="http://www.w3.org/2000/svg" xml:space="preserve" width="8.783mm" height="7.6541mm" version="1.1" style="shape-rendering:geometricPrecision; text-rendering:geometricPrecision; image-rendering:optimizeQuality; fill-rule:evenodd; clip-rule:evenodd"
viewBox="0 0 6.13 5.34"
 xmlns:xlink="http://www.w3.org/1999/xlink"
 xmlns:xodm="http://www.corel.com/coreldraw/odm/2003">
 <defs>
  <style type="text/css">
   <![CDATA[
    .fil0 {fill:#01B1B1}
   ]]>
  </style>
 </defs>
 <g id="Camada_x0020_1">
  <metadata id="CorelCorpID_0Corel-Layer"/>
  <g id="_1864482240352">
   <path class="fil0" d="M0.41 4.62l0 -3.24 5.31 0 0 3.24c0,0.19 -0.13,0.32 -0.32,0.32l-4.68 0c-0.19,0 -0.32,-0.13 -0.32,-0.32zm0 -3.86c0,-0.18 0.1,-0.33 0.27,-0.33l4.78 0c0.29,0 0.27,0.35 0.27,0.52l-5.31 0 0 -0.19zm0.72 -0.75c-0.35,0 -0.66,-0.05 -0.9,0.19 -0.11,0.11 -0.22,0.28 -0.22,0.46l0 4.02c0,0.34 0.33,0.66 0.66,0.66l4.8 0c0.34,0 0.66,-0.33 0.66,-0.66l0 -4.02c0,-0.09 -0.04,-0.2 -0.07,-0.26 -0.1,-0.21 -0.35,-0.39 -0.62,-0.39l-0.43 0 -0.41 0 -3.07 0 -0.41 0z"/>
   <path class="fil0" d="M2.25 2.97c0.09,0 0.5,-0.04 0.57,-0.12 0.05,-0.04 0.21,-0.37 0.23,-0.46l0.13 0.24c0.03,0.06 0.08,0.18 0.12,0.22 0.06,0.06 0.16,0.06 0.27,0.08l0.24 0.03c0.04,0.01 0.05,-0.01 0.05,0.02 -0,0.02 -0.31,0.3 -0.34,0.35 -0.07,0.11 0.05,0.43 0.05,0.6 -0.08,-0.04 -0.16,-0.09 -0.24,-0.13 -0.32,-0.16 -0.21,-0.16 -0.75,0.13 0,-0.17 0.12,-0.49 0.04,-0.6 -0.05,-0.08 -0.3,-0.28 -0.36,-0.37zm0.29 -0.45l-0.81 0.11c-0.13,0.04 -0.14,0.14 -0.14,0.23 0,0.11 0.36,0.4 0.45,0.49 0.05,0.05 0.11,0.12 0.16,0.16 -0.01,0.08 -0.04,0.2 -0.05,0.28 -0.02,0.1 -0.03,0.2 -0.05,0.3 -0.02,0.08 -0.05,0.21 -0.03,0.28 0.03,0.12 0.11,0.15 0.23,0.15 0.06,0 0.47,-0.24 0.56,-0.28 0.07,-0.03 0.13,-0.07 0.19,-0.1l0.37 0.2c0.07,0.03 0.12,0.06 0.19,0.1 0.09,0.06 0.15,0.09 0.24,0.09 0.1,0 0.17,-0.07 0.19,-0.14 0.02,-0.07 -0.01,-0.2 -0.03,-0.29l-0.1 -0.58c0.06,-0.04 0.11,-0.1 0.16,-0.15 0.06,-0.06 0.11,-0.09 0.17,-0.15 0.06,-0.06 0.1,-0.1 0.16,-0.16 0.12,-0.12 0.13,-0.1 0.13,-0.25 0,-0.19 -0.27,-0.19 -0.4,-0.21l-0.54 -0.07 -0.1 -0.23c-0.03,-0.07 -0.07,-0.15 -0.11,-0.22 -0.08,-0.17 -0.14,-0.37 -0.31,-0.37 -0.17,0 -0.23,0.2 -0.31,0.36 -0.04,0.07 -0.08,0.14 -0.11,0.22 -0.03,0.07 -0.09,0.17 -0.11,0.24z"/>
  </g>
 </g>
</svg>
