<?xml version="1.0" encoding="UTF-8"?>
<!DOCTYPE svg PUBLIC "-//W3C//DTD SVG 1.1//EN" "http://www.w3.org/Graphics/SVG/1.1/DTD/svg11.dtd">
<!-- Creator: CorelDRAW -->
<svg xmlns="http://www.w3.org/2000/svg" xml:space="preserve" width="7.8754mm" height="7.8754mm" version="1.1" style="shape-rendering:geometricPrecision; text-rendering:geometricPrecision; image-rendering:optimizeQuality; fill-rule:evenodd; clip-rule:evenodd"
viewBox="0 0 4.28 4.28"
 xmlns:xlink="http://www.w3.org/1999/xlink"
 xmlns:xodm="http://www.corel.com/coreldraw/odm/2003">
 <defs>
  <style type="text/css">
   <![CDATA[
    .fil0 {fill:#01B1B1}
   ]]>
  </style>
 </defs>
 <g id="Camada_x0020_1">
  <metadata id="CorelCorpID_0Corel-Layer"/>
  <g id="_1864932685504">
   <path class="fil0" d="M1.21 3.97l0 -1.72c0,-0.09 0.04,-0.18 0.13,-0.18l1.61 0c0.08,0 0.13,0.08 0.13,0.18l0 1.72c0,0.11 -0.06,0.17 -0.17,0.17l-1.52 0c-0.11,0 -0.17,-0.06 -0.17,-0.17zm3.07 -2.88l0 0.05c-0.01,0.08 -0.04,0.15 -0.09,0.21 -0.07,0.07 -0.14,0.08 -0.19,0.11 0,0.4 -0,0.8 0,1.2 0,0.16 -0.08,0.22 -0.2,0.25l-0.58 0.16 0 0.93c0,0.15 -0.12,0.28 -0.27,0.28l-1.61 0c-0.14,0 -0.27,-0.13 -0.27,-0.29l0 -0.92 -0.47 -0.13c-0.18,-0.05 -0.32,-0.06 -0.32,-0.28 0,-0.4 0,-0.8 0,-1.2 -0.04,-0.02 -0.07,-0.02 -0.11,-0.04 -0.13,-0.07 -0.18,-0.17 -0.18,-0.33 0,-0.06 0.03,-0.12 0.05,-0.16l0.22 -0.38c0.03,-0.06 0.05,-0.06 0.12,-0.08l1.09 -0.31c0.13,-0.04 0.54,-0.17 0.67,-0.17 0.07,0 1.21,0.33 1.26,0.35l0.47 0.13c0.08,0.02 0.08,0.02 0.12,0.08 0.05,0.09 0.1,0.17 0.15,0.25 0.03,0.04 0.05,0.08 0.08,0.13 0.03,0.05 0.04,0.1 0.05,0.15zm-2.07 0.25c0.01,0.01 0,0 0.01,0.01l0.04 0.06c0.02,0.03 0.03,0.05 0.04,0.07 0.09,0.16 0.17,0.32 0.39,0.32 0.05,0 0.1,-0.02 0.15,-0.03l0.86 -0.24c0.04,-0.01 0.11,-0.04 0.15,-0.04l0 1.15c0,0.05 0,0.08 -0.03,0.09 -0.02,0.01 -0.08,0.02 -0.1,0.03l-0.4 0.11c-0.04,0.01 -0.07,0.02 -0.11,0.03 0,-0.21 0,-0.42 0,-0.64 0,-0.12 -0,-0.18 -0.07,-0.25 -0.06,-0.06 -0.11,-0.1 -0.22,-0.1l-0.7 0 0 -0.58zm-1.15 1.56c-0.04,-0 -0.07,-0.02 -0.1,-0.03 -0.04,-0.01 -0.06,-0.02 -0.1,-0.03l-0.4 -0.11c-0.04,-0.02 -0.04,-0.04 -0.04,-0.09l0 -1.15 1 0.28c0.04,0.01 0.1,0.03 0.15,0.03 0.29,0 0.36,-0.33 0.48,-0.47l0 0.58 -0.7 0c-0.11,0 -0.16,0.04 -0.22,0.1 -0.07,0.06 -0.07,0.12 -0.07,0.24 0,0.21 0,0.43 0,0.64zm1.19 -1.8c0.07,-0.01 1.58,-0.45 1.64,-0.45 0.01,0.03 0.04,0.08 0.06,0.11l0.12 0.21c0.05,0.08 0.08,0.15 0.03,0.24 -0.06,0.09 -0.22,0.12 -0.36,0.15l-0.78 0.22c-0.17,0.04 -0.33,0.14 -0.44,-0.02l-0.23 -0.38c-0.01,-0.01 -0.01,-0.02 -0.02,-0.04 -0.01,-0.01 -0.01,-0.01 -0.01,-0.02 -0.01,-0.01 -0.01,-0.02 -0.01,-0.02zm-0.66 0.55c-0.08,0 -1,-0.27 -1.07,-0.29 -0.13,-0.04 -0.3,-0.06 -0.35,-0.15 -0.08,-0.13 0.01,-0.23 0.08,-0.35l0.12 -0.22c0.06,0 1.57,0.45 1.64,0.45 -0.01,0.03 -0.24,0.41 -0.27,0.46 -0.03,0.05 -0.08,0.09 -0.16,0.09zm-0.96 -1.1c0.14,-0.03 0.59,-0.17 0.75,-0.21 0.13,-0.04 0.25,-0.07 0.38,-0.11l0.38 -0.1c0.05,0 1.3,0.38 1.5,0.42l-1.32 0.37c-0.23,0.07 -0.15,0.06 -0.37,0l-0.57 -0.16c-0.13,-0.04 -0.25,-0.07 -0.38,-0.11l-0.38 -0.11z"/>
   <path class="fil0" d="M2 3.78c0,0.04 0.02,0.08 0.07,0.08l0.72 0c0.09,0 0.11,-0.15 -0.03,-0.15l-0.65 0c-0.06,0 -0.11,0.02 -0.11,0.08z"/>
   <path class="fil0" d="M2 2.91c0,0.04 0,0.09 0.09,0.09l0.69 0c0.1,0 0.12,-0.15 -0.01,-0.15l-0.69 0c-0.03,0 -0.08,0.03 -0.08,0.06z"/>
   <path class="fil0" d="M2 2.49c0,0.07 0.05,0.08 0.12,0.08l0.63 0c0.06,0 0.1,-0.01 0.11,-0.06 0.02,-0.04 -0.02,-0.09 -0.07,-0.09l-0.72 0c-0.04,0 -0.07,0.03 -0.07,0.07z"/>
   <path class="fil0" d="M2 3.34c0,0.04 0.01,0.09 0.08,0.09l0.7 0c0.1,0 0.1,-0.15 0,-0.15l-0.7 0c-0.03,0 -0.08,0.03 -0.08,0.06z"/>
   <path class="fil0" d="M1.57 2.89c-0.02,-0.01 -0.04,-0.04 -0.07,-0.04 -0.07,0 -0.08,0.05 -0.08,0.09 0,0.02 0.07,0.13 0.14,0.13 0.05,0 0.19,-0.16 0.23,-0.2 0.02,-0.02 0.06,-0.04 0.06,-0.09 0,-0.04 -0.03,-0.08 -0.07,-0.08 -0.06,0 -0.09,0.05 -0.12,0.08 -0.03,0.03 -0.07,0.07 -0.1,0.1z"/>
   <path class="fil0" d="M1.57 3.32c-0.02,-0.02 -0.04,-0.04 -0.07,-0.04 -0.05,0 -0.07,0.04 -0.07,0.08 0,0.04 0.09,0.13 0.13,0.13 0.07,0 0.1,-0.06 0.17,-0.13 0.05,-0.05 0.12,-0.11 0.12,-0.15 0,-0.04 -0.04,-0.08 -0.08,-0.08 -0.04,0 -0.09,0.06 -0.11,0.08 -0.03,0.03 -0.07,0.07 -0.1,0.1z"/>
   <path class="fil0" d="M1.56 2.47c-0.01,-0.02 0.01,-0.01 -0.02,-0.03 -0.03,-0.02 -0.11,-0.03 -0.11,0.08 0,0.02 0.09,0.13 0.14,0.13 0.05,0 0.11,-0.08 0.16,-0.13 0.05,-0.05 0.13,-0.11 0.13,-0.16 0,-0.04 -0.03,-0.08 -0.08,-0.08 -0.06,0 -0.14,0.13 -0.22,0.18z"/>
   <path class="fil0" d="M1.57 3.75c-0.04,-0.03 -0.02,-0.03 -0.09,-0.03 -0.02,0 -0.11,0.05 -0.01,0.14 0.05,0.05 0.08,0.1 0.15,0.05l0.14 -0.14c0.01,-0.01 0.01,-0.01 0.02,-0.02l0.06 -0.06c0.04,-0.05 0.01,-0.11 -0.04,-0.12 -0.07,-0.01 -0.12,0.11 -0.22,0.18z"/>
  </g>
 </g>
</svg>
